<svg xmlns="http://www.w3.org/2000/svg" xmlns:xlink="http://www.w3.org/1999/xlink" width="87.217" height="89.078" viewBox="0 0 87.217 89.078"><defs><clipPath id="clip-path"><rect id="Rectangle_4" data-name="Rectangle 4" width="87.217" height="89.078" fill="none"></rect></clipPath></defs><g id="Groupe_1" data-name="Groupe 1" clip-path="url(#clip-path)"><path id="Trac&#xE9;_1" data-name="Trac&#xE9; 1" d="M86.844,2.225V.047c.434-.039,4.02-.085,5.355,0,8.04.513,8.936,1.219,11.661,2.449a30.741,30.741,0,0,1,9.691,7.566,31.49,31.49,0,0,1,6.333,11.773,34.365,34.365,0,0,1,1.175,5.854,35.8,35.8,0,0,1,.194,6.16,33.741,33.741,0,0,1-3.357,13.185,30.849,30.849,0,0,1-11.418,12.632c-.148.093-.289.2-.554.379,0,0,14.888,3.743,16.833,4.228,0,0-3.9,9.668-5.846,14.505-.268-.083-.478-.135-.678-.213a75.61,75.61,0,0,1-9.459-4.464,43.358,43.358,0,0,1-6.343-4.179c-1.111-.909-2.163-1.894-3.2-2.89-1.6-1.536-3.122-3.148-4.847-4.55a23,23,0,0,0-10.21-4.721,30.366,30.366,0,0,0-4.858-.619c-.916-.032-3.266-.148-3.266-.148V55s2.533-.032,3.585.06c1.388.121,2.776.277,4.153.49A25.386,25.386,0,0,1,88.95,57.79a26.846,26.846,0,0,1,6.938,4.961c1.6,1.538,3.163,3.109,4.789,4.615a31.072,31.072,0,0,0,5.9,4.186c2.014,1.137,4.088,2.169,6.153,3.212.94.475,1.921.868,2.869,1.291L119.773,65.7l-19.59-4.874s3.511-1.974,5-2.869a28.354,28.354,0,0,0,8.311-7.667,29.563,29.563,0,0,0,5.058-11.721,33.056,33.056,0,0,0,.615-8.577,31.649,31.649,0,0,0-4.177-14.279,27.41,27.41,0,0,0-10.9-10.585c-.291-.155-.629-.317-.995-.48a26.976,26.976,0,0,0-9.433-2.264c-1.469-.085-2.9-.159-3.409-.159Z" transform="translate(-56.135 0)" fill="#314d8e"></path><path id="Trac&#xE9;_2" data-name="Trac&#xE9; 2" d="M41.157,0v26.2H16s-.036-11.484.013-16.918A9.327,9.327,0,0,1,23.885.145,9.882,9.882,0,0,1,25.554.01Q33.017-.005,40.48,0c.214,0,.427-.012.677,0M18.15,24.016l20.858-.044L38.941,2.183,25.068,2.2a6.191,6.191,0,0,0-3.553,1.1,7.008,7.008,0,0,0-3.365,6.07c-.029,4.7,0,14.641,0,14.641" transform="translate(-12.119 0)" fill="#db2349"></path><path id="Trac&#xE9;_3" data-name="Trac&#xE9; 3" d="M41.157,140.941v-26.2H16s-.036,11.484.013,16.918a9.327,9.327,0,0,0,7.873,9.147,9.884,9.884,0,0,0,1.669.135q7.463.015,14.926,0c.214,0,.427.012.677,0M18.15,116.93l20.858.044-.067,21.789-13.873-.017a6.191,6.191,0,0,1-3.553-1.1,7.008,7.008,0,0,1-3.365-6.07c-.029-4.7,0-14.641,0-14.641" transform="translate(-12.119 -86.979)" fill="#f8b55d"></path><path id="Trac&#xE9;_4" data-name="Trac&#xE9; 4" d="M288.066,68.108c-3.579,0-7.757-1.335-10.612-6.458a17.134,17.134,0,0,1-2.112-8.4L275.55,0h13.221V9.117h6.221v12.8h-6.221v33.22h4.051l3.125,10.988-.8.4a17.677,17.677,0,0,1-7.079,1.581M277.719,2.177l-.2,51.082a14.953,14.953,0,0,0,1.836,7.331c4.133,7.416,11.52,5.317,13.992,4.348l-2.169-7.627h-4.584V19.737h6.221V11.295h-6.221V2.177Z" transform="translate(-208.731)" fill="#1f927c"></path><path id="Trac&#xE9;_5" data-name="Trac&#xE9; 5" d="M7.135,307.758a3.244,3.244,0,0,0,.578-.771,3.831,3.831,0,0,0,.35-.919,4.245,4.245,0,0,0,.118-.995,3.891,3.891,0,0,0-.322-1.583,3.991,3.991,0,0,0-.873-1.261A4.065,4.065,0,0,0,5.7,301.39a4.126,4.126,0,0,0-1.58-.3,4.226,4.226,0,0,0-1.624.31,4.046,4.046,0,0,0-1.306.861,4,4,0,0,0-.873,1.3A4.163,4.163,0,0,0,0,305.182a4.069,4.069,0,0,0,.327,1.638,3.97,3.97,0,0,0,.89,1.289,4.1,4.1,0,0,0,1.316.844,4.246,4.246,0,0,0,1.6.3H8.705V308.1H6.71a2.808,2.808,0,0,0,.424-.343m-.506-1.492a2.811,2.811,0,0,1-.561.928,2.605,2.605,0,0,1-.868.617,2.734,2.734,0,0,1-1.115.225,2.612,2.612,0,0,1-1.972-.857,2.862,2.862,0,0,1-.561-.934,3.274,3.274,0,0,1-.2-1.149,2.831,2.831,0,0,1,.21-1.086,2.779,2.779,0,0,1,.576-.886,2.738,2.738,0,0,1,.864-.6,2.659,2.659,0,0,1,1.083-.219,2.706,2.706,0,0,1,1.969.816,2.7,2.7,0,0,1,.57.89,2.968,2.968,0,0,1,.2,1.1,3.283,3.283,0,0,1-.2,1.149" transform="translate(0 -228.247)" fill="#314d8e"></path><path id="Trac&#xE9;_6" data-name="Trac&#xE9; 6" d="M43.916,306.76a2.927,2.927,0,0,1-.095.719,2.048,2.048,0,0,1-.31.677,1.675,1.675,0,0,1-.562.5,2.018,2.018,0,0,1-1.72,0,1.672,1.672,0,0,1-.562-.5,2.045,2.045,0,0,1-.31-.677,2.933,2.933,0,0,1-.095-.719V301.9H38.977v5.025a3.3,3.3,0,0,0,.239,1.275,3.054,3.054,0,0,0,.659.994,2.919,2.919,0,0,0,.99.649,3.412,3.412,0,0,0,2.448,0,2.929,2.929,0,0,0,.99-.649,3.056,3.056,0,0,0,.659-.994,3.306,3.306,0,0,0,.239-1.275V301.9H43.916Z" transform="translate(-29.548 -228.864)" fill="#314d8e"></path><path id="Trac&#xE9;_7" data-name="Trac&#xE9; 7" d="M70.547,301.9l-3.514,7.974h1.486l.765-1.912h3.522l.776,1.912h1.484L71.653,301.9Zm1.78,4.906H69.752l1.3-3.145Z" transform="translate(-50.816 -228.864)" fill="#314d8e"></path><path id="Trac&#xE9;_8" data-name="Trac&#xE9; 8" d="M104.441,301.9h-1.287v7.973h4.837v-1.221h-3.551Z" transform="translate(-78.2 -228.864)" fill="#314d8e"></path><rect id="Rectangle_1" data-name="Rectangle 1" width="1.287" height="7.973" transform="translate(30.626 73.036)" fill="#314d8e"></rect><path id="Trac&#xE9;_9" data-name="Trac&#xE9; 9" d="M147.261,301.9l-2.108,3.294-2.044-3.294h-7.571v1.221h2.491v6.752h1.286V303.12h2.491V302.4l2.7,4.093v3.383h1.287V306.49l3.03-4.591Z" transform="translate(-102.749 -228.864)" fill="#314d8e"></path><path id="Trac&#xE9;_10" data-name="Trac&#xE9; 10" d="M70.227,346.025h-.7v-6.213H67.237v-.639H72.52v.639H70.227Z" transform="translate(-50.971 -257.12)" fill="#314d8e"></path><path id="Trac&#xE9;_11" data-name="Trac&#xE9; 11" d="M94.173,346.024h-.7v-6.851h2.11a2.687,2.687,0,0,1,1.65.455,1.61,1.61,0,0,1,.6,1.374,1.712,1.712,0,0,1-.45,1.2,1.933,1.933,0,0,1-1.3.566l1.974,3.252h-.852l-1.877-3.184H94.173Zm0-3.822h1.239a2.793,2.793,0,0,0,.789-.1,1.469,1.469,0,0,0,.518-.256.936.936,0,0,0,.281-.378,1.25,1.25,0,0,0,.087-.469,1.227,1.227,0,0,0-.087-.46.975.975,0,0,0-.281-.382,1.367,1.367,0,0,0-.518-.256,2.93,2.93,0,0,0-.789-.092H94.173Z" transform="translate(-70.862 -257.12)" fill="#314d8e"></path><path id="Trac&#xE9;_12" data-name="Trac&#xE9; 12" d="M114.169,346.024h-.813l2.98-6.851h.677l2.98,6.851h-.813l-.755-1.8h-3.5Zm1.016-2.439h2.971l-1.481-3.6Z" transform="translate(-85.933 -257.12)" fill="#314d8e"></path><rect id="Rectangle_2" data-name="Rectangle 2" width="0.697" height="6.851" transform="translate(34.99 82.053)" fill="#314d8e"></rect><path id="Trac&#xE9;_13" data-name="Trac&#xE9; 13" d="M160.149,344.979h.019v-5.806h.7v6.851h-.871l-4.084-5.864h-.019v5.864h-.7v-6.851h.871Z" transform="translate(-117.65 -257.12)" fill="#314d8e"></path><rect id="Rectangle_3" data-name="Rectangle 3" width="0.697" height="6.851" transform="translate(45.073 82.053)" fill="#314d8e"></rect><path id="Trac&#xE9;_14" data-name="Trac&#xE9; 14" d="M201.829,344.979h.019v-5.806h.7v6.851h-.871l-4.084-5.864h-.019v5.864h-.7v-6.851h.871Z" transform="translate(-149.247 -257.12)" fill="#314d8e"></path><path id="Trac&#xE9;_15" data-name="Trac&#xE9; 15" d="M231.6,339.885a2.538,2.538,0,0,0-.832-.58,3.031,3.031,0,0,0-2.3.029,2.681,2.681,0,0,0-.885.648,2.854,2.854,0,0,0-.556.943,3.381,3.381,0,0,0,0,2.255,2.853,2.853,0,0,0,.556.944,2.68,2.68,0,0,0,.885.648,2.777,2.777,0,0,0,1.181.242,3.926,3.926,0,0,0,1.021-.131,3.634,3.634,0,0,0,.876-.353v-2.293h-1.635V341.6h2.332v3.358a4.993,4.993,0,0,1-1.273.518,5.289,5.289,0,0,1-1.321.179,3.661,3.661,0,0,1-1.418-.271,3.4,3.4,0,0,1-1.882-1.887,3.972,3.972,0,0,1,0-2.884,3.4,3.4,0,0,1,1.882-1.887,3.666,3.666,0,0,1,1.418-.271,3.97,3.97,0,0,1,1.418.228,3,3,0,0,1,1.06.692Z" transform="translate(-171.383 -256.574)" fill="#314d8e"></path></g></svg>