<?xml version="1.0" encoding="UTF-8"?>
<svg id="Calque_2" data-name="Calque 2" xmlns="http://www.w3.org/2000/svg" viewBox="0 0 150 150">
  <defs>
    <style>
      .cls-1 {
        fill: #141718;
        fill-rule: evenodd;
      }

      .cls-1, .cls-2 {
        stroke-width: 0px;
      }

      .cls-2 {
        fill: #45c2cf;
      }
    </style>
  </defs>
  <g id="Calque_1-2" data-name="Calque 1">
    <g>
      <rect class="cls-2" width="150" height="150" rx="33.09" ry="33.09"/>
      <g>
        <path class="cls-1" d="M82.42,48.44v-2.21c0-.33.25-.56.56-.56h9.94c.32,0,.57.23.57.55v1.89c0,.32-.27.74-.75,1.39l-5.14,7.31c1.91-.04,3.94.24,5.67,1.21.39.22.5.54.53.86v2.34c0,.33-.36.7-.73.5-3.3-1.68-7.21-1.68-10.5.03-.35.18-.71-.18-.71-.51v-2.24c0-.36,0-.97.37-1.51l5.97-8.53h-5.19c-.32,0-.58-.22-.59-.55h0ZM102.05,45.39c4.49,0,6.92,3.84,6.92,8.71s-2.68,8.44-6.92,8.44-6.8-3.84-6.8-8.61,2.43-8.54,6.8-8.54ZM102.08,48.54c-2.23,0-2.37,3.01-2.37,4.91s-.03,5.91,2.35,5.91,2.45-3.25,2.45-5.23c0-1.3-.06-2.86-.45-4.09-.33-1.07-1.01-1.5-1.98-1.5ZM77.54,62.18c-.2.17-.57.18-.71.07-1.04-.8-1.73-2.01-1.73-2.01-1.66,1.69-2.84,2.19-4.99,2.19-2.54,0-4.52-1.57-4.52-4.69-.07-2.16,1.22-4.12,3.22-4.92,1.64-.72,3.94-.84,5.69-1.05,0,0,.14-1.88-.37-2.57-.41-.51-1.04-.8-1.7-.78-1.11,0-2.2.6-2.42,1.77-.06.33-.3.62-.57.58l-2.89-.31c-.29-.04-.5-.3-.46-.59,0-.01,0-.03,0-.04.67-3.54,3.88-4.61,6.76-4.61,1.47,0,3.39.39,4.56,1.5,1.47,1.37,1.33,3.18,1.33,5.18v4.69c0,1.41.59,2.03,1.14,2.78.19.28.23.6,0,.81-.62.51-2.33,1.99-2.33,1.99ZM74.49,54.85v-.65c-2.19,0-4.5.47-4.5,3.03,0,1.3.68,2.18,1.84,2.18.84,0,1.61-.52,2.09-1.36.59-1.05.56-2.02.56-3.19ZM37.89,62.18c-.19.17-.56.18-.7.07-1.04-.8-1.73-2.01-1.73-2.01-1.67,1.69-2.84,2.19-4.99,2.19-2.55,0-4.52-1.57-4.52-4.69-.07-2.16,1.22-4.12,3.22-4.92,1.64-.72,3.94-.84,5.69-1.05,0,0,.14-1.88-.37-2.57-.42-.51-1.04-.8-1.7-.78-1.12,0-2.2.6-2.42,1.77-.06.33-.31.62-.57.58l-2.9-.31c-.29-.04-.49-.31-.45-.6,0-.01,0-.02,0-.03.66-3.54,3.88-4.61,6.76-4.61,1.47,0,3.39.39,4.56,1.5,1.47,1.37,1.32,3.18,1.32,5.18v4.69c0,1.41.59,2.03,1.14,2.78.19.28.23.6,0,.81-.62.51-2.33,1.99-2.33,1.99ZM34.85,54.85v-.65c-2.19,0-4.5.47-4.5,3.03,0,1.3.67,2.18,1.84,2.18.84,0,1.61-.52,2.09-1.36.59-1.05.56-2.02.56-3.19ZM46.74,53.48v8.17c0,.31-.25.56-.57.56h-3.01c-.31,0-.56-.24-.57-.55h0v-15.39c0-.31.25-.56.57-.56h2.82c.31,0,.56.25.56.56v1.97h.06c.74-1.94,2.12-2.86,3.98-2.86s3.07.91,3.93,2.86c.62-1.75,2.31-2.91,4.17-2.86,1.27,0,2.66.52,3.5,1.69.96,1.3.76,3.18.76,4.84v9.74c0,.31-.26.55-.59.55h-3.02c-.3,0-.54-.25-.54-.55v-8.18c0-.65.06-2.28-.08-2.89-.23-1.05-.9-1.34-1.78-1.34-.8.03-1.51.53-1.8,1.28-.31.78-.28,2.08-.28,2.96v8.18c0,.31-.26.55-.59.55h-3.02c-.3,0-.54-.25-.54-.55v-8.18c0-1.73.28-4.25-1.87-4.25s-2.09,2.46-2.09,4.25h0ZM115.38,61.66c0,.31-.25.56-.56.56h-3.02c-.31,0-.56-.25-.56-.56v-15.38c0-.31.25-.56.56-.56h2.79c.34,0,.57.26.57.44v2.35h.06c.84-2.11,2.03-3.12,4.12-3.12,1.36,0,2.68.49,3.53,1.82.79,1.24.79,3.32.79,4.81v9.71c-.04.29-.29.49-.58.49h-3.03c-.27-.01-.5-.21-.54-.49v-9.33c0-3.12-1.2-3.21-1.89-3.21-.8,0-1.46.63-1.73,1.21-.38.93-.55,1.94-.5,2.95v8.31Z"/>
        <g>
          <path class="cls-1" d="M26.72,104.06c-.52,0-.78-.25-.78-.78v-18.17c0-.52.26-.78.78-.78h1.73c.25,0,.46.06.6.16.14.1.24.3.29.59l.23,1.24c2.5-1.71,4.94-2.56,7.31-2.56s4.07.92,4.93,2.76c2.58-1.84,5.16-2.76,7.74-2.76,1.8,0,3.18.5,4.15,1.51.96,1.02,1.45,2.46,1.45,4.32v13.69c0,.52-.27.78-.79.78h-2.3c-.52,0-.79-.25-.79-.78v-12.6c0-1.3-.25-2.26-.74-2.88-.5-.63-1.28-.94-2.35-.94-1.91,0-3.82.58-5.75,1.76.03.17.04.37.04.58v14.08c0,.52-.26.78-.78.78h-2.31c-.52,0-.78-.25-.78-.78v-12.6c0-1.3-.25-2.26-.75-2.88-.5-.63-1.28-.94-2.35-.94-1.99,0-3.89.57-5.71,1.72v14.7c0,.52-.25.78-.78.78h-2.32Z"/>
          <path class="cls-1" d="M66.45,104.64c-1.85,0-3.27-.52-4.26-1.56-.99-1.04-1.48-2.5-1.48-4.4v-13.56c0-.53.25-.79.78-.79h2.3c.53,0,.79.26.79.78v12.34c0,1.4.27,2.43.82,3.09.55.66,1.43.99,2.62.99,1.88,0,3.77-.62,5.67-1.87v-14.56c0-.52.25-.78.78-.78h2.3c.53,0,.79.26.79.78v18.18c0,.51-.26.77-.79.77h-1.68c-.26,0-.47-.05-.61-.15-.14-.11-.23-.3-.29-.59l-.27-1.36c-2.43,1.78-4.92,2.68-7.47,2.68Z"/>
          <path class="cls-1" d="M88.66,104.64c-2.19,0-4.16-.36-5.9-1.09-.25-.09-.47-.23-.64-.43-.12-.16-.18-.4-.18-.74v-1.09c0-.47.15-.7.47-.7.18,0,.5.08.97.23,1.73.54,3.52.81,5.36.81,1.28,0,2.25-.25,2.92-.74.67-.5,1-1.21,1-2.14.02-.57-.19-1.12-.6-1.52-.66-.52-1.41-.92-2.21-1.16l-3.32-1.24c-2.9-1.06-4.34-2.88-4.34-5.45,0-1.69.65-3.06,1.98-4.09,1.31-1.04,3.04-1.56,5.18-1.56,1.7,0,3.38.3,4.97.9.31.1.54.23.67.4.12.17.19.42.19.76v1.06c0,.47-.17.7-.5.7-.31-.02-.61-.09-.9-.19-1.38-.42-2.79-.63-4.23-.63-2.5,0-3.75.85-3.75,2.53,0,.67.21,1.21.63,1.59.42.39,1.24.82,2.46,1.29l3.05,1.17c1.54.58,2.65,1.3,3.33,2.12.68.81,1.01,1.87,1.01,3.17,0,1.84-.69,3.31-2.07,4.4-1.38,1.09-3.22,1.63-5.51,1.63h0Z"/>
          <path class="cls-1" d="M101.18,104.06c-.52,0-.79-.25-.79-.78v-18.17c0-.52.27-.78.79-.78h2.3c.52,0,.79.26.79.78v18.18c0,.51-.27.77-.79.77h-2.3Z"/>
          <path class="cls-1" d="M102.35,80.83c-.75,0-1.35-.21-1.78-.64-.44-.45-.67-1.06-.64-1.69,0-.7.22-1.26.64-1.69.48-.45,1.13-.68,1.78-.64.75,0,1.34.22,1.77.64.44.42.65.99.65,1.69s-.21,1.26-.65,1.69c-.43.42-1.02.64-1.77.64Z"/>
          <path class="cls-1" d="M118.69,104.48c-3.07,0-5.43-.87-7.05-2.62-1.63-1.76-2.45-4.29-2.45-7.6s.84-5.85,2.52-7.65c1.67-1.8,4.06-2.7,7.14-2.7,1.41,0,2.79.25,4.15.75.29.1.49.23.6.38.12.16.18.42.18.78v1.05c0,.52-.17.78-.5.78-.13,0-.34-.03-.63-.12-1.06-.31-2.15-.46-3.25-.46-2.19,0-3.77.54-4.73,1.65-.96,1.1-1.44,2.86-1.44,5.28v.5c0,2.35.49,4.09,1.47,5.19.98,1.1,2.52,1.65,4.63,1.65,1.09,0,2.26-.17,3.52-.54.29-.09.48-.12.59-.12.34,0,.51.26.51.78v1.05c0,.33-.05.59-.16.74-.1.15-.31.29-.62.42-1.28.55-2.77.82-4.46.82Z"/>
        </g>
        <g>
          <path class="cls-1" d="M86.55,68.15c-5.68,4.16-13.9,6.38-21,6.38-9.45.05-18.59-3.42-25.63-9.73-.54-.48-.06-1.13.58-.75,7.82,4.45,16.67,6.78,25.66,6.77,6.28,0,13.21-1.3,19.57-3.99.96-.4,1.77.63.83,1.32h0Z"/>
          <path class="cls-1" d="M88.92,65.47c-.73-.92-4.8-.45-6.63-.23-.56.07-.65-.42-.14-.76,3.25-2.27,8.57-1.62,9.19-.86.63.76-.17,6.07-3.21,8.61-.47.39-.91.18-.7-.33.69-1.7,2.22-5.51,1.49-6.43Z"/>
        </g>
      </g>
    </g>
  </g>
</svg>