<?xml version="1.0" encoding="UTF-8"?>
<svg id="Calque_2" data-name="Calque 2" xmlns="http://www.w3.org/2000/svg" xmlns:xlink="http://www.w3.org/1999/xlink" viewBox="0 0 150 150">
  <defs>
    <style>
      .cls-1 {
        fill: #fff;
      }

      .cls-1, .cls-2 {
        stroke-width: 0px;
      }

      .cls-2 {
        fill: url(#Dégradé_sans_nom_3);
        fill-rule: evenodd;
      }
    </style>
    <linearGradient id="Dégradé_sans_nom_3" data-name="Dégradé sans nom 3" x1="75" y1="799.11" x2="75" y2="649.11" gradientTransform="translate(0 799.11) scale(1 -1)" gradientUnits="userSpaceOnUse">
      <stop offset="0" stop-color="#f452ff"/>
      <stop offset="1" stop-color="#832bc1"/>
    </linearGradient>
  </defs>
  <g id="Calque_1-2" data-name="Calque 1">
    <g>
      <path class="cls-2" d="M147.05,130c-1.45,3.7-4.8,8.9-9.6,12.6-2.75,2.1-6.05,4.15-10.55,5.5-4.8,1.45-10.75,1.9-18.15,1.9H41.25c-7.4,0-13.3-.5-18.15-1.9-4.5-1.35-7.8-3.35-10.55-5.5-4.75-3.65-8.15-8.9-9.6-12.6C.05,122.55,0,114.1,0,108.75h0V41.25h0c0-5.35.05-13.8,2.95-21.25,1.45-3.7,4.8-8.9,9.6-12.6,2.75-2.1,6.05-4.15,10.55-5.5,4.85-1.4,10.75-1.9,18.15-1.9h67.5c7.4,0,13.3.5,18.15,1.9,4.5,1.35,7.8,3.35,10.55,5.5,4.75,3.65,8.15,8.9,9.6,12.6,2.95,7.45,2.95,15.95,2.95,21.25v67.5c0,5.35-.05,13.8-2.95,21.25Z"/>
      <g>
        <path class="cls-1" d="M87.85,90.55c-.2-1.8-.8-3.1-2-4.3-2.25-2.35-6.2-3.9-10.85-3.9s-8.6,1.5-10.85,3.9c-1.15,1.25-1.8,2.5-2,4.3-.4,3.5-.15,6.5.25,11.35.4,4.6,1.15,10.75,2.1,16.95.7,4.45,1.25,6.85,1.75,8.55.85,2.8,3.9,5.2,8.75,5.2s7.95-2.45,8.75-5.2c.5-1.7,1.05-4.1,1.75-8.55.95-6.25,1.7-12.35,2.1-16.95.45-4.85.65-7.85.25-11.35Z"/>
        <path class="cls-1" d="M87.3,65.05c0,6.8-5.5,12.3-12.3,12.3s-12.3-5.5-12.3-12.3,5.5-12.3,12.3-12.3,12.3,5.55,12.3,12.3Z"/>
        <path class="cls-1" d="M74.85,16.6c-28.7.1-52.2,23.4-52.6,52.1-.3,23.25,14.55,43.15,35.3,50.45.5.2,1-.25.95-.75-.25-1.8-.55-3.6-.75-5.4-.1-.65-.5-1.15-1.05-1.45-16.4-7.15-27.85-23.6-27.65-42.65.25-25,20.65-45.35,45.6-45.55,25.55-.2,46.4,20.5,46.4,46,0,18.85-11.4,35.05-27.65,42.2-.6.25-1,.8-1.05,1.45-.25,1.8-.5,3.6-.75,5.4-.1.55.45.95.95.75,20.55-7.2,35.3-26.8,35.3-49.8-.1-29.1-23.85-52.8-53-52.75Z"/>
        <path class="cls-1" d="M73.65,34.1c-18.7.7-33.7,16.15-33.95,34.85-.15,12.3,6,23.2,15.45,29.65.45.3,1.1-.05,1.1-.6-.15-2.15-.15-4.05-.05-6.05.05-.65-.2-1.25-.7-1.7-5.75-5.4-9.25-13.1-9.05-21.6.4-15,12.45-27.2,27.45-27.8,16.3-.65,29.7,12.45,29.7,28.55,0,8.2-3.5,15.6-9.05,20.85-.45.45-.7,1.05-.7,1.7.1,1.95.05,3.85-.05,6-.05.55.6.95,1.1.6,9.3-6.35,15.45-17.1,15.45-29.2.05-19.9-16.6-36.05-36.7-35.25Z"/>
      </g>
    </g>
  </g>
</svg>