<?xml version="1.0" encoding="UTF-8"?>
<svg id="Calque_2" data-name="Calque 2" xmlns="http://www.w3.org/2000/svg" viewBox="0 0 150 150">
  <defs>
    <style>
      .cls-1 {
        fill: #a238ff;
        fill-rule: evenodd;
      }

      .cls-1, .cls-2 {
        stroke-width: 0px;
      }

      .cls-2 {
        fill: #fff;
      }
    </style>
  </defs>
  <g id="Calque_1-2" data-name="Calque 1">
    <g>
      <circle class="cls-2" cx="75" cy="75" r="75"/>
      <path class="cls-1" d="M112.26,43.34c1.02-5.9,2.51-9.61,4.17-9.62h0c3.08.01,5.59,12.87,5.59,28.76s-2.5,28.76-5.59,28.76c-1.27,0-2.43-2.19-3.37-5.85-1.49,13.41-4.57,22.63-8.14,22.63-2.76,0-5.24-5.54-6.91-14.27-1.14,16.61-4,28.39-7.34,28.39-2.1,0-4.01-4.67-5.43-12.27-1.7,15.69-5.64,26.69-10.23,26.69s-8.53-10.99-10.23-26.69c-1.41,7.6-3.32,12.27-5.43,12.27-3.34,0-6.2-11.78-7.34-28.39-1.66,8.73-4.14,14.27-6.91,14.27-3.57,0-6.66-9.21-8.14-22.63-.93,3.67-2.11,5.85-3.37,5.85-3.09,0-5.59-12.87-5.59-28.76s2.5-28.76,5.59-28.76c1.66,0,3.14,3.72,4.17,9.62,1.65-10.17,4.32-16.78,7.35-16.78,3.59,0,6.7,9.35,8.18,22.93,1.44-9.88,3.63-16.18,6.07-16.18,3.43,0,6.35,12.39,7.43,29.67,2.03-8.86,4.97-14.42,8.23-14.42s6.2,5.56,8.23,14.42c1.08-17.28,4-29.67,7.43-29.67,2.44,0,4.63,6.3,6.07,16.18,1.47-13.58,4.58-22.93,8.17-22.93,3.01,0,5.7,6.61,7.35,16.78ZM20,59.65c0-7.1,1.42-12.86,3.17-12.86s3.17,5.76,3.17,12.86-1.42,12.86-3.17,12.86-3.17-5.76-3.17-12.86ZM123.66,59.65c0-7.1,1.42-12.86,3.17-12.86s3.17,5.76,3.17,12.86-1.42,12.86-3.17,12.86-3.17-5.76-3.17-12.86Z"/>
    </g>
  </g>
</svg>