<?xml version="1.0" encoding="utf-8"?>
<!-- Generator: Adobe Illustrator 25.2.3, SVG Export Plug-In . SVG Version: 6.00 Build 0)  -->
<svg version="1.1" id="Calque_1_-_copie" xmlns="http://www.w3.org/2000/svg" xmlns:xlink="http://www.w3.org/1999/xlink" x="0px"
	 y="0px" viewBox="0 0 921.6 760" style="enable-background:new 0 0 921.6 760;" xml:space="preserve">
<rect id="Rectangle_14310_2_" width="276.1" height="276.1" fill="#0b4b7c"/>
<g fill="#0b4b7c">
	<path d="M380,0h157.8v26H407.9v94.3h87.5v26h-87.5v103.9h138.5v26H380V0z"/>
	<path d="M783.1,276.1L654.2,69.3c-3.8-5.8-7.7-12.5-10.6-18.3v18.3v206.8h-27.9V0h27.9l127.9,208.8c3.8,6.7,7.7,12.5,11.5,19.2
		v-19.2V0H811v276.1H783.1z"/>
	<path d="M893.7,0h27.9v276.1h-27.9V0z"/>
</g>
<path d="M143.3,341.5c79.8,0,105.8,43.3,105.8,87.5c0,27.9-11.5,52.9-39.4,66.4c36.6,13.5,51,47.1,51,75
	c0,46.2-28.9,97.2-110.6,97.2H0V340.6L143.3,341.5L143.3,341.5z M185.7,434.8c0-16.4-6.7-34.6-41.4-34.6H62.5v69.3h73.1
	C169.3,469.5,185.7,456,185.7,434.8z M196.3,571.4c0-21.2-10.6-42.3-56.8-42.3h-77v80.8H153C186.6,609,196.3,588.8,196.3,571.4z" fill="#0b4b7c"/>
<path d="M323.2,359.8l60.6-28.9v336.7h-60.6V359.8z" fill="#0b4b7c"/>
<path d="M444.5,549.3c0-77.9,42.3-125.1,109.7-125.1c67.3,0,109.7,47.1,109.7,125.1s-42.3,125.1-109.7,125.1
	S444.5,627.2,444.5,549.3z M603.2,549.3c0-41.4-18.3-66.4-49.1-66.4c-29.8,0-49.1,25-49.1,66.4c0,41.4,19.2,66.4,49.1,66.4
	C584.9,615.7,603.2,590.7,603.2,549.3z" fill="#0b4b7c"/>
<path d="M775.4,710.9c64.5-4.8,85.6-14.4,85.6-49.1v-6.7c-14.4,15.4-32.7,18.3-51.9,18.3c-56.8,0-98.1-42.3-98.1-125.1
	c0-77,40.4-125.1,99.1-125.1c21.2,0,38.5,5.8,51,18.3v-12.5h60.6v205.9c0,81.8-22.1,118.3-112.6,125.1L775.4,710.9z M861,596.5
	v-94.3c-7.7-8.7-18.3-19.2-41.4-19.2c-30.8,0-47.1,23.1-47.1,66.4c0,39.4,15.4,66.4,47.1,66.4C838.9,615.7,851.4,609,861,596.5z" fill="#0b4b7c"/>
</svg>
