<?xml version="1.0" encoding="UTF-8"?>
<svg id="Calque_2" data-name="Calque 2" xmlns="http://www.w3.org/2000/svg" xmlns:xlink="http://www.w3.org/1999/xlink" viewBox="0 0 150 149.54">
  <defs>
    <style>
      .cls-1 {
        fill: #f4842d;
      }

      .cls-1, .cls-2, .cls-3, .cls-4 {
        stroke-width: 0px;
      }

      .cls-2 {
        fill: none;
      }

      .cls-3 {
        fill: url(#Dégradé_sans_nom_11);
      }

      .cls-5 {
        clip-path: url(#clippath);
      }

      .cls-4 {
        fill: #fff;
      }
    </style>
    <clipPath id="clippath">
      <path class="cls-2" d="M116.5,149.54H33.5c-18.43,0-33.5-15.06-33.5-33.5V33.5C0,15.06,15.06,0,33.5,0h83.01c18.4,0,33.5,15.06,33.5,33.5v82.55c0,18.43-15.09,33.5-33.5,33.5Z"/>
    </clipPath>
    <linearGradient id="Dégradé_sans_nom_11" data-name="Dégradé sans nom 11" x1="54.51" y1="438.96" x2="177.58" y2="562.39" gradientTransform="translate(0 -384)" gradientUnits="userSpaceOnUse">
      <stop offset=".13" stop-color="#e85d27"/>
      <stop offset=".69" stop-color="#f0772b"/>
    </linearGradient>
  </defs>
  <g id="Calque_1-2" data-name="Calque 1">
    <g>
      <path class="cls-1" d="M116.5,149.54H33.5c-18.43,0-33.5-15.06-33.5-33.5V33.5C0,15.06,15.06,0,33.5,0h83.01c18.4,0,33.5,15.06,33.5,33.5v82.55c0,18.43-15.09,33.5-33.5,33.5Z"/>
      <g class="cls-5">
        <polygon class="cls-3" points="119.83 150.92 41.85 109.82 33.89 75.21 69.35 31.7 109.2 42.47 195.06 128.36 119.83 150.92"/>
      </g>
      <path class="cls-4" d="M122.89,73.94c-.59-26.13-21.94-47.15-48.23-47.15s-48.23,21.61-48.23,48.23c0,18.43,10.35,34.48,25.57,42.6v-42.83c0-11.17,8.02-20.46,18.6-22.5v8.02c-6.25,1.83-10.81,7.63-10.81,14.47v.13h0v.07c.1,8.25,6.84,14.9,15.09,14.9,6.84,0,12.61-4.55,14.47-10.77h8.02c-2.03,10.58-11.33,18.57-22.5,18.57-5.8,0-11.07-2.16-15.09-5.7v28.95c4.68,1.51,9.69,2.36,14.9,2.36,10.02,0,19.32-3.05,27.05-8.28v8.28h21.19l-.03-49.35h0ZM74.85,83.6c-4.88,0-8.81-3.93-8.81-8.81s3.93-8.81,8.81-8.81,8.81,3.93,8.81,8.81-3.93,8.81-8.81,8.81ZM97.77,74.85h-7.79v-.07c0-8.35-6.75-15.09-15.09-15.09h-.03v-7.79h.03c12.64,0,22.89,10.25,22.89,22.89v.07h0ZM111.2,74.85h-7.73v-.07c0-15.78-12.8-28.59-28.59-28.59h-.03v-7.73h.03c20.07,0,36.31,16.27,36.31,36.31v.07Z"/>
    </g>
  </g>
</svg>