<?xml version="1.0" encoding="UTF-8"?>
<svg id="Calque_2" data-name="Calque 2" xmlns="http://www.w3.org/2000/svg" xmlns:xlink="http://www.w3.org/1999/xlink" viewBox="0 0 150 150">
  <defs>
    <style>
      .cls-1 {
        fill: url(#Dégradé_sans_nom_12);
      }

      .cls-1, .cls-2 {
        stroke-width: 0px;
      }

      .cls-2 {
        fill: #fff;
      }
    </style>
    <linearGradient id="Dégradé_sans_nom_12" data-name="Dégradé sans nom 12" x1="75" y1="-1" x2="75" y2="149" gradientUnits="userSpaceOnUse">
      <stop offset="0" stop-color="#f8a01d"/>
      <stop offset=".71" stop-color="#f26e23"/>
      <stop offset="1" stop-color="#ef5826"/>
    </linearGradient>
  </defs>
  <g id="Calque_1-2" data-name="Calque 1">
    <g>
      <circle class="cls-1" cx="75" cy="75" r="75"/>
      <g>
        <path class="cls-2" d="M15.74,80.35l-.74,6.65.74,6.65c0,.37.37.37.37.37.37,0,.37-.37.37-.37l1.11-6.65-1.11-6.65c0-.37-.37-.37-.37-.37,0,0-.37,0-.37.37"/>
        <path class="cls-2" d="M20.17,76.29l-1.11,10.71,1.11,10.71c0,.37.37.37.37.37.37,0,.37-.37.37-.37l1.48-10.71-1.48-10.71c0-.37-.37-.37-.37-.37h0l-.37.37"/>
        <path class="cls-2" d="M34.2,74.82l-.74,12.18.74,12.92c0,.37.37.74.74.74s.74-.37.74-.74l1.48-12.92-1.11-12.18c0-.37-.37-.74-.74-.74-.74,0-1.11.37-1.11.74"/>
        <path class="cls-2" d="M24.97,74.08l-1.11,12.92,1.11,12.18c0,.37.37.74.74.74,0,0,.37-.37.37-.74l1.11-12.18-1.11-12.92c0-.37-.37-.74-.74-.74,0,.37-.37.37-.37.74"/>
        <path class="cls-2" d="M29.4,73.71l-1.11,13.29,1.11,12.55c0,.37.37.74.74.74s.74-.37.74-.74l1.11-12.55-1.11-13.29c0-.37-.37-.74-.74-.74s-.37.37-.74.74"/>
        <path class="cls-2" d="M39,67.06l-1.11,19.94,1.11,12.92c0,.37.37.74.74.74.74,0,1.11-.37,1.11-.74l1.11-12.92-1.11-19.94c0-.37-.37-.74-.74-.74-.74,0-1.11.37-1.11.74"/>
        <path class="cls-2" d="M43.8,62.63l-.74,24.37.74,12.92c0,.74.37,1.11,1.11,1.11.37,0,1.11-.37,1.11-1.11l1.11-12.92-1.11-24.37c0-.74-.37-1.11-1.11-1.11s-1.11.37-1.11,1.11"/>
        <path class="cls-2" d="M63.37,61.52l-.74,25.48.74,12.18c0,.74.74,1.48,1.48,1.48s1.48-.74,1.48-1.48l.74-12.18-.74-25.85c0-.74-.74-1.48-1.48-1.48-1.11.37-1.48.74-1.48,1.85"/>
        <path class="cls-2" d="M48.6,60.42l-.74,26.58.74,12.55c0,.74.37,1.11,1.11,1.11s1.11-.37,1.11-1.11l.74-12.55-.74-26.58c0-.74-.37-1.11-1.11-1.11s-1.11.74-1.11,1.11"/>
        <path class="cls-2" d="M58.2,60.42l-.74,26.58.74,12.55c0,.74.74,1.48,1.48,1.48s1.48-.74,1.48-1.48l.74-12.55-.74-26.58c0-.74-.74-1.48-1.48-1.48-.74,0-1.48.74-1.48,1.48"/>
        <path class="cls-2" d="M53.4,59.68l-.74,27.32.74,12.55c0,.74.37,1.11,1.11,1.11s1.11-.37,1.11-1.11l.74-12.55-.74-27.32c0-.74-.74-1.11-1.11-1.11-.37,0-1.11.37-1.11,1.11"/>
        <path class="cls-2" d="M68.17,56.35l-.74,30.65.74,12.18c0,.74.74,1.48,1.48,1.48s1.48-.74,1.48-1.48l.74-12.18-.74-30.65c0-.74-.74-1.48-1.48-1.48s-1.48.74-1.48,1.48"/>
        <path class="cls-2" d="M73.34,53.77l-.74,33.23.74,12.18c0,.74.74,1.48,1.48,1.48s1.48-.74,1.48-1.48l.74-12.18-.74-33.23c0-.74-.74-1.48-1.48-1.48h-.37c-.74,0-1.11.74-1.11,1.48"/>
        <path class="cls-2" d="M79.25,50.45c-1.11.37-1.48.74-1.48,1.85v46.89c0,.74.74,1.48,1.48,1.85h40.98c8.12,0,14.77-6.65,14.77-14.77s-6.65-14.77-14.77-14.77c-1.85,0-4.06.37-5.54,1.11-1.11-13.29-12.18-23.63-25.85-23.63h-1.85c-2.58,0-5.17.74-7.75,1.48"/>
      </g>
    </g>
  </g>
</svg>