<?xml version="1.0" encoding="UTF-8"?>
<svg id="Calque_2" data-name="Calque 2" xmlns="http://www.w3.org/2000/svg" viewBox="0 0 150 150">
  <defs>
    <style>
      .cls-1 {
        fill: #1ed760;
        stroke-width: 0px;
      }
    </style>
  </defs>
  <g id="Calque_1-2" data-name="Calque 1">
    <path class="cls-1" d="M150,75c0,41.42-33.58,75-75,75S0,116.42,0,75,33.58,0,75,0c0,0,0,0,0,0,41.41.02,74.98,33.59,74.99,75ZM129.98,60.44c0-3.6-1.54-5.48-3.9-6.83-16.89-9.86-40.04-14.46-62.11-14.46-12.98,0-24.89,1.48-35.53,4.6-2.72.79-5.24,3.12-5.24,7.23-.08,3.86,2.98,7.05,6.84,7.13.07,0,.14,0,.21,0,1.33-.08,2.64-.34,3.9-.79,24.92-6.95,63.41-3.87,84.95,8.98,3.19,2.17,7.54,1.34,9.71-1.86.8-1.18,1.22-2.58,1.21-4.01h-.02ZM119.45,84.63c0-2.63-.97-4.5-3.41-5.95-14.94-8.89-33.9-13.76-53.53-13.76-10.01-.09-19.97,1.3-29.57,4.12-3.12.87-4.66,3.02-4.66,6.26,0,3.24,2.63,5.86,5.87,5.87,1.36,0,2.15-.39,3.6-.79,25.05-6.8,53.26-2.29,72.16,8.89,1.08.58,2.14,1.27,3.72,1.27,3.24-.01,5.85-2.65,5.84-5.88,0-.01,0-.02,0-.04v.02ZM110.05,105.71c0-2.75-1.09-3.81-2.91-4.99-21.59-12.91-46.9-13.4-71.64-7.92-2.27.48-4.11,1.97-4.11,5.08-.04,2.6,2.03,4.74,4.63,4.78.05,0,.1,0,.15,0,1.22-.15,2.43-.41,3.6-.79,21.68-4.44,43.63-3.96,62.51,7.41,1.16.69,1.97,1.09,3.24,1.09,2.53-.01,4.56-2.07,4.55-4.59,0-.03,0-.06,0-.08v.02Z"/>
  </g>
</svg>