<?xml version="1.0" encoding="UTF-8"?>
<svg id="Calque_2" data-name="Calque 2" xmlns="http://www.w3.org/2000/svg" viewBox="0 0 150 150">
  <defs>
    <style>
      .cls-1 {
        fill: red;
      }

      .cls-1, .cls-2 {
        stroke-width: 0px;
      }

      .cls-2 {
        fill: #fff;
      }
    </style>
  </defs>
  <g id="Calque_1-2" data-name="Calque 1">
    <g>
      <circle class="cls-2" cx="75" cy="75" r="75"/>
      <path class="cls-1" d="M127.7,48.36c-1.27-4.76-4.97-8.49-9.73-9.79-8.57-2.33-42.97-2.33-42.97-2.33,0,0-34.39,0-42.98,2.33-4.76,1.29-8.46,5.02-9.73,9.79-2.3,8.63-2.3,26.65-2.3,26.65,0,0,0,18.02,2.3,26.65,1.27,4.76,4.97,8.49,9.73,9.79,8.57,2.31,42.98,2.31,42.98,2.31,0,0,34.39,0,42.97-2.31,4.76-1.29,8.46-5.02,9.73-9.79,2.3-8.63,2.3-26.65,2.3-26.65,0,0,0-18.01-2.3-26.65ZM63.75,91.35v-32.69l28.75,16.36-28.75,16.33Z"/>
    </g>
  </g>
</svg>